<?xml version="1.0" encoding="UTF-8" standalone="no"?>
<!-- Created with Inkscape (http://www.inkscape.org/) -->

<svg
   xmlns:dc="http://purl.org/dc/elements/1.1/"
   xmlns:cc="http://creativecommons.org/ns#"
   xmlns:rdf="http://www.w3.org/1999/02/22-rdf-syntax-ns#"
   xmlns:svg="http://www.w3.org/2000/svg"
   xmlns="http://www.w3.org/2000/svg"
   xmlns:sodipodi="http://sodipodi.sourceforge.net/DTD/sodipodi-0.dtd"
   xmlns:inkscape="http://www.inkscape.org/namespaces/inkscape"
   id="svg3055"
   version="1.1"
   inkscape:version="0.48.2 r9819"
   width="711.40192"
   height="846.21417"
   sodipodi:docname="i2header.svg"
   inkscape:export-filename="/Users/mattmapleston/Dropbox/Projects/2nd-screen/Hive Industries/i2header.png"
   inkscape:export-xdpi="90.129997"
   inkscape:export-ydpi="90.129997">
  <metadata
     id="metadata3061">
    <rdf:RDF>
      <cc:Work
         rdf:about="">
        <dc:format>image/svg+xml</dc:format>
        <dc:type
           rdf:resource="http://purl.org/dc/dcmitype/StillImage" />
        <dc:title></dc:title>
      </cc:Work>
    </rdf:RDF>
  </metadata>
  <defs
     id="defs3059">
    <clipPath
       clipPathUnits="userSpaceOnUse"
       id="clipPath3847">
      <rect
         style="fill:#000000;fill-opacity:1;fill-rule:evenodd;stroke:none"
         id="rect3849"
         width="296.45779"
         height="107.60321"
         x="3.2939742"
         y="7.8487105" />
    </clipPath>
    <filter
       inkscape:collect="always"
       id="filter3816"
       x="-0.14597283"
       width="1.2919457"
       y="-0.12066045"
       height="1.2413208"
       color-interpolation-filters="sRGB">
      <feGaussianBlur
         inkscape:collect="always"
         stdDeviation="3.8834924"
         id="feGaussianBlur3818" />
    </filter>
  </defs>
  <sodipodi:namedview
     pagecolor="#ffffff"
     bordercolor="#666666"
     borderopacity="1"
     objecttolerance="10"
     gridtolerance="10"
     guidetolerance="10"
     inkscape:pageopacity="0"
     inkscape:pageshadow="2"
     inkscape:window-width="1637"
     inkscape:window-height="879"
     id="namedview3057"
     showgrid="false"
     inkscape:zoom="0.45537676"
     inkscape:cx="227.10807"
     inkscape:cy="664.85619"
     inkscape:window-x="1640"
     inkscape:window-y="118"
     inkscape:window-maximized="0"
     inkscape:current-layer="svg3055"
     fit-margin-top="0"
     fit-margin-left="0"
     fit-margin-right="0"
     fit-margin-bottom="0" />
  <path
     inkscape:transform-center-y="-26.699007"
     inkscape:transform-center-x="217.50133"
     transform="matrix(7.5523989,4.1715163,-4.0033582,7.8696318,3126.1343,4973.212)"
     d="m -496.11799,-299.56522 a 29.503105,40.372669 0 1 1 -59.00621,0 29.503105,40.372669 0 1 1 59.00621,0 z"
     sodipodi:ry="40.372669"
     sodipodi:rx="29.503105"
     sodipodi:cy="-299.56522"
     sodipodi:cx="-525.62109"
     id="path3766"
     style="fill:#4d4d4d;fill-rule:evenodd;stroke:none;filter:url(#filter3816)"
     sodipodi:type="arc" />
  <path
     sodipodi:type="arc"
     style="fill:#ffff00;fill-rule:evenodd;stroke:none"
     id="path3038"
     sodipodi:cx="-525.62109"
     sodipodi:cy="-299.56522"
     sodipodi:rx="29.503105"
     sodipodi:ry="40.372669"
     d="m -496.11799,-299.56522 a 29.503105,40.372669 0 1 1 -59.00621,0 29.503105,40.372669 0 1 1 59.00621,0 z"
     transform="matrix(7.5523989,4.1715163,-4.0033582,7.8696318,3109.0387,4939.0207)"
     inkscape:transform-center-x="217.50125"
     inkscape:transform-center-y="-26.698939" />
  <path
     style="fill:#000000;stroke:#000000;stroke-width:8.54784203px;stroke-linecap:butt;stroke-linejoin:miter;stroke-opacity:1"
     d="m 224.36369,379.47418 c 5.58131,21.73425 16.79061,19.64105 1.25731,68.75721 -32.5495,102.92081 -17.44009,134.22686 15.25062,143.36843 95.98279,26.84031 212.36867,-194.94782 212.36867,-194.94782 12.71996,-7.46611 36.22439,-3.31827 52.26262,4.97742 0,0 -7.6093,-20.79554 -18.25042,-24.0574 -42.40482,-12.99845 -87.10439,7.46611 -87.10439,7.46611 34.24983,-41.9822 78.96514,-70.36224 94.48991,-101.18345 44.85829,-89.05673 -84.05059,-87.14568 -94.48982,-18.274 0,0 46.05996,-47.32796 78.80871,-17.42085 34.45891,31.46879 -98.48482,132.07647 -108.8154,155.9582 37.78412,-7.64177 60.70062,-7.46568 60.70062,-7.46568 0,0 -106.07103,179.67888 -172.54965,151.81044 -33.11425,-13.88177 -6.95709,-79.17652 4.37351,-152.7478 5.28393,-34.30907 -43.04386,-34.70509 -38.30229,-16.24081 z"
     id="path3040"
     inkscape:connector-curvature="0"
     sodipodi:nodetypes="sssccscscsccsss" />
  <path
     style="fill:#000000;stroke:#000000;stroke-width:8.54784203px;stroke-linecap:butt;stroke-linejoin:miter;stroke-opacity:1"
     d="m 254.14463,283.00152 c 24.05739,0.82914 95.39999,-43.96694 95.39999,-43.96694 -24.61043,39.81918 -51.70957,67.19484 -91.25215,89.5931 -7.18959,-15.20875 -6.91307,-26.26957 -4.14784,-45.62616 z"
     id="path3042"
     inkscape:connector-curvature="0"
     sodipodi:nodetypes="cccc" />
</svg>
